<svg height="512pt" viewBox="-71 0 512 512" width="512pt" xmlns="http://www.w3.org/2000/svg"><path d="m260.921875 512h-216.613281c-24.433594 0-44.308594-19.875-44.308594-44.308594v-250.769531c0-18.222656 10.933594-34.371094 27.851562-41.140625l70.609376-28.242188v-29.386718c0-8.15625 6.613281-14.769532 14.769531-14.769532h78.769531c8.15625 0 14.769531 6.613282 14.769531 14.769532v29.386718l70.609375 28.246094c16.917969 6.765625 27.851563 22.914063 27.851563 41.136719v137.921875c0 4.179688-1.769531 8.164062-4.875 10.964844-3.101563 2.800781-7.257813 4.152344-11.402344 3.726562-1.953125-.203125-3.929687-.304687-5.875-.304687-31.21875 0-56.617187 25.398437-56.617187 56.617187 0 27.117188 19.304687 50.496094 45.894531 55.585938 6.667969 1.277344 11.605469 6.933594 11.972656 13.710937.363281 6.777344-3.9375 12.929688-10.425781 14.917969-4.203125 1.285156-8.570313 1.9375-12.980469 1.9375zm-132.921875-379.078125v24.617187c0 6.039063-3.675781 11.46875-9.285156 13.710938l-79.890625 31.957031c-5.640625 2.257813-9.285157 7.640625-9.285157 13.714844v250.769531c0 8.144532 6.625 14.769532 14.769532 14.769532h173.851562c-13.300781-15.265626-21.238281-35.171876-21.238281-56.613282 0-45.019531 34.707031-82.082031 78.769531-85.84375v-123.082031c0-6.074219-3.644531-11.457031-9.285156-13.714844l-79.890625-31.957031c-5.609375-2.242188-9.285156-7.671875-9.285156-13.710938v-24.617187zm0 0" fill="#e8eaf6"/><path d="m219.269531 408.617188h-204.5c-8.15625 0-14.769531-6.613282-14.769531-14.769532v-137.847656c0-8.15625 6.613281-14.769531 14.769531-14.769531h275.691407c8.15625 0 14.769531 6.613281 14.769531 14.769531v98.839844c0 4.179687-1.769531 8.167968-4.875 10.964844-3.101563 2.804687-7.257813 4.15625-11.402344 3.730468-1.953125-.203125-3.929687-.304687-5.875-.304687-21.53125 0-40.925781 11.972656-50.609375 31.246093-2.507812 4.988282-7.613281 8.140626-13.199219 8.140626zm-189.730469-29.539063h181.179688c14.464844-22.453125 38.300781-36.824219 64.972656-39.074219v-69.234375h-246.152344zm0 0" fill="#ffb655"/><path d="m192 339.691406h-78.769531c-8.15625 0-14.769531-6.613281-14.769531-14.769531s6.613281-14.769531 14.769531-14.769531h78.769531c8.15625 0 14.769531 6.613281 14.769531 14.769531s-6.613281 14.769531-14.769531 14.769531zm0 0" fill="#9fa8da"/><path d="m232.601562 491.089844c-3.78125 0-7.5625-1.441406-10.445312-4.324219-5.765625-5.769531-5.765625-15.117187 0-20.886719l100.953125-100.953125c5.769531-5.765625 15.121094-5.769531 20.886719 0 5.769531 5.769531 5.769531 15.117188 0 20.886719l-100.953125 100.953125c-2.882813 2.882813-6.664063 4.324219-10.441407 4.324219zm0 0" fill="#ffb655"/><path d="m283.078125 512c-47.507813 0-86.15625-38.648438-86.15625-86.152344 0-47.507812 38.648437-86.15625 86.15625-86.15625 47.503906 0 86.152344 38.648438 86.152344 86.15625 0 47.503906-38.648438 86.152344-86.152344 86.152344zm0-142.769531c-31.21875 0-56.617187 25.398437-56.617187 56.617187 0 31.214844 25.398437 56.613282 56.617187 56.613282s56.613281-25.398438 56.613281-56.613282c0-31.21875-25.394531-56.617187-56.613281-56.617187zm0 0" fill="#ef5350"/><path d="m192.265625 132.921875h-79.300781c-22.230469 0-42.8125-12.949219-52.433594-32.992187-.957031-1.992188-1.453125-4.179688-1.453125-6.390626v-49.230468c0-1.878906.355469-3.742188 1.054687-5.484375 9.433594-23.585938 31.941407-38.824219 57.34375-38.824219h70.277344c25.402344 0 47.910156 15.238281 57.34375 38.824219.695313 1.742187 1.054688 3.605469 1.054688 5.484375v49.230468c0 2.210938-.496094 4.394532-1.453125 6.390626-9.621094 20.042968-30.199219 32.992187-52.433594 32.992187zm-103.648437-43.121094c5.167968 8.339844 14.421874 13.582031 24.347656 13.582031h79.300781c9.925781 0 19.183594-5.242187 24.351563-13.582031v-42.375c-5.417969-10.945312-16.480469-17.886719-28.863282-17.886719h-70.277344c-12.382812 0-23.449218 6.941407-28.859374 17.886719zm0 0" fill="#80cbc4"/></svg>