<svg xmlns="http://www.w3.org/2000/svg" viewBox="0 0 474.9 473.18"><title>Asset 1</title><path d="M472.83,101.88,378.88,2.4c-3.58-3.79-10.58-3-15.63,1.76S357,15.87,360.59,19.67l34.07,36.06-52.29,49.36L368.72,133,421,83.63l33.53,35.52c3.58,3.79,10.59,3,15.63-1.76s6.24-11.71,2.66-15.51M250.54,194.5a3.57,3.57,0,0,0,5.07-5l-12.85-12.94a3.56,3.56,0,0,0-5.06,5Zm15.76-15.63a3.57,3.57,0,0,0,5.07-5L258.52,160.9a3.57,3.57,0,1,0-5.06,5Zm8-33.6a3.57,3.57,0,0,0-5.06,5l12.84,12.94a3.57,3.57,0,0,0,5.07-5Zm-33,50.37a12.52,12.52,0,0,0-13.41-3.23l11,11.68a3.57,3.57,0,0,1-5.18,4.9L222,196.59l-10.95,10.35,11.7,12.39a3.57,3.57,0,0,1-5.19,4.9l-11.7-12.4-10.95,10.35,11.7,12.39a3.56,3.56,0,1,1-5.18,4.89l-11.71-12.39-10.94,10.34,11.7,12.39a3.57,3.57,0,1,1-5.19,4.9l-11.7-12.39-11,10.34L174.37,265a3.57,3.57,0,0,1-5.18,4.9l-11.71-12.39-10.95,10.34,11.71,12.39a3.57,3.57,0,0,1-5.19,4.9l-11.7-12.39L130.4,283.13l11.7,12.39a3.57,3.57,0,0,1-5.19,4.9L125.21,288l-10.95,10.34L126,310.76a3.57,3.57,0,0,1-5.19,4.9l-11.62-12.31a12.42,12.42,0,0,0,.75,16.37L149,361.15a12.42,12.42,0,0,0,17.54.67L280.1,254.61a12.42,12.42,0,0,0,.33-17.55Zm180.39,7.63c-2.46-1.19-1.65-2.22-2.55-3.16L282.29,57.72a18.19,18.19,0,0,0-12-5.59,16,16,0,0,0-12.14,4.35c-5.58,5.37-6.47,14-2.13,20.94a19,19,0,0,0,2.38,3.08l15.41,16c-.24.21-.49.43-.73.66l-202,194.09a26.11,26.11,0,0,0-4,32.44,26.64,26.64,0,0,0,3.34,4.3l21.41,22.26-1.35,1.3c-2.59,2.49-2.82,6.76-.55,10.4a10,10,0,0,0,1.32,1.71L92.51,365,2.85,451.1.05,469a3.61,3.61,0,0,0,6.07,3.17l98.48-94.63,1.33,1.38a8.45,8.45,0,0,0,5.67,2.69,7.67,7.67,0,0,0,5.69-2.19l1.34-1.29,21.54,22.4a25.92,25.92,0,0,0,36.6.67l202-194.1.69-.68,15.76,16.42a18,18,0,0,0,11.88,5.59,16.27,16.27,0,0,0,12.3-4.29C425,218.77,426.62,210.26,421.69,203.27Zm-60.51-14.49-202,194.1a.55.55,0,0,1-.76,0L88.71,310.35l-.07-.1a.54.54,0,0,1,.08-.67l202-194.1a.55.55,0,0,1,.39-.14.53.53,0,0,1,.37.16L361.19,188l.08.09a.57.57,0,0,1-.09.67" fill="#80cbc4"/></svg>